<svg id="Layer_1" x="0" y="0" version="1.1" viewBox="0 0 3147 2000" xml:space="preserve">
  <style>
    .st1{fill:#466eb6}.st2{fill:#7f1ca0}.st3{fill:#f47458}.st5{fill:#b75742}.st7{fill:#355389}.st9{fill:#fae0b2}.st10{fill:#daeef7}.st12{fill:#3c8f7c}.st13{fill:#184655}.st15{fill:#fff}.st16{fill:#f79c8d}.st17{fill:#042a44}.st18{fill:#07345a}.st19{fill:#f7a491}.st20{fill:#327f6b}
  </style>
  <switch>
    <g>
      <path fill="#f47458" d="M2868.72 1545.64h-351.24c37.59-34.55 61.56-86.87 61.56-145.43v-43.03c0-124.66 90.63-225.72 202.43-225.72 114.6 0 207.51-103.6 207.51-231.39 0-127.79-92.9-231.39-207.51-231.39h-34c-111.8 0-202.43-101.06-202.43-225.72 0-104.03-75.63-188.36-168.92-188.36H1056.28c-103.84 0-188.01 93.86-188.01 209.65 0 79.15 39.34 148.05 97.41 183.73H733.83c-96.69 0-175.07 80.89-175.07 180.67 0 119.58-93.93 216.51-209.8 216.51h-35.23c-118.78 0-215.07 99.37-215.07 221.95 0 122.58 96.29 221.95 215.07 221.95 115.87 0 209.8 96.94 209.8 216.51v41.28c0 99.78 78.38 180.67 175.07 180.67h814.66c6.15.59 12.37.91 18.67.91h1336.79c105.71 0 191.4-85.69 191.4-191.4-.01-105.69-85.7-191.39-191.4-191.39z" opacity=".65"/>
      <path d="M944.7 1315.9c-5.33-.01-9.67 6.13-9.68 13.73-.02 7.6 4.29 13.76 9.62 13.78 5.33.01 9.67-6.13 9.68-13.73.01-7.6-4.29-13.76-9.62-13.78zm-.01 3.89c2.86.01 5.18 1.44 5.17 3.2 0 1.76-2.33 3.18-5.19 3.17-2.86-.01-5.18-1.44-5.17-3.2 0-1.76 2.33-3.18 5.19-3.17zm-.05 18.46c-4.04-.01-7.3-2.22-7.29-4.93.01-2.71 3.28-4.9 7.32-4.89 4.04.01 7.3 2.22 7.29 4.93-.01 2.71-3.28 4.9-7.32 4.89z" class="st1"/>
      <path d="M922.79 1346.27a33.235 33.235 0 00-3.1 13.94l-.25 100.69c-.02 6.08 4.95 11.02 11.1 11.04l57.58.14c6.14.02 11.14-4.9 11.15-10.98l.25-100.69c.01-4.81-1.03-9.57-3.03-13.95l-73.7-.19z" class="st2"/>
      <path d="M922.79 1346.27a33.235 33.235 0 00-3.1 13.94l-.25 100.69c-.02 6.08 4.95 11.02 11.1 11.04l57.58.14c6.14.02 11.14-4.9 11.15-10.98l.25-100.69c.01-4.81-1.03-9.57-3.03-13.95l-73.7-.19z" class="st2"/>
      <path d="M999.52 1360.4l-.25 100.7c-.01 6.08-5.01 11-11.15 10.98l-57.58-.14c-6.15-.02-11.11-4.96-11.1-11.04l.25-100.7c.01-4.81 1.07-9.56 3.1-13.93l73.69.18c2 4.39 3.05 9.15 3.04 13.95z" class="st3"/>
      <path fill="#f48c7f" d="M934.71 1460.94l.25-100.69c.01-4.81 1.07-9.56 3.1-13.94l-15.27-.04a33.235 33.235 0 00-3.1 13.94l-.25 100.69c-.02 6.08 4.95 11.02 11.1 11.04l15.27.04c-6.15-.02-11.12-4.96-11.1-11.04z"/>
      <path d="M999.52 1360.4l-.25 100.7c-.01 6.08-5.01 11-11.15 10.98l-23.54-.06c6.2.02 11.25-4.91 11.27-10.98l.25-100.7c.01-4.81-1.05-9.56-3.07-13.95l23.45.06c2 4.39 3.05 9.15 3.04 13.95z" class="st5"/>
      <path fill="#13375b" d="M996.48 1346.45l-73.7-.18c.01-3.22 2.65-5.82 5.9-5.81l61.92.15c3.26.01 5.89 2.62 5.88 5.84z"/>
      <path d="M953.13 1407.46h12.51v79.82h-12.51z" class="st7" transform="rotate(-89.859 959.388 1447.371)"/>
      <path fill="#86b1f2" d="M850.26 1313.85h8.8c-1.44-.98-3.24-1.57-5.2-1.57H633.3c-11.54 0-20.89 8.29-20.89 18.52v11.76c0 10.23 9.35 18.52 20.89 18.52l218.09-.07-1.13-47.16z"/>
      <path d="M725.04 1312.32c-11.04 0-19.98 7.93-19.98 17.71v13.29c0 9.78 8.95 17.71 19.98 17.71h137.3v-2.97h-.57l-34.91-2.93-7.06-24.53s13.62-13.56 14.5-13.91c.89-.35 27.46-1.41 27.46-1.41l.57-.01v-2.96H725.04z" class="st1"/>
      <path d="M853.44 1336.59c0-14.34 8.36-21.3 8.36-21.3H727.86c-10.14 0-18.35 7.28-18.35 16.27v10.23c0 8.98 8.22 16.27 18.35 16.27H861.8c0 .01-8.36-3.4-8.36-21.47z" class="st9"/>
      <path d="M709.5 1331.56v10.23c0 1.35.19 2.65.54 3.9 4.52-9.8 13.18-19.24 29.66-22.27 38.48-7.08 122.11-8.13 122.11-8.13H727.86c-10.14.01-18.36 7.29-18.36 16.27z" class="st10"/>
      <path fill="#50bfa5" d="M846.63 1411.41h9.96a9.749 9.749 0 00-5.89-1.97H601.08c-13.06 0-23.65 10.38-23.65 23.18v14.73c0 12.8 10.59 23.18 23.65 23.18l246.84-.08-1.29-59.04z"/>
      <path d="M704.91 1409.49c-12.49 0-22.61 9.93-22.61 22.17v16.64c0 12.24 10.12 22.17 22.61 22.17h155.4v-3.72h-.64l-39.51-3.67-7.98-30.71s15.41-16.97 16.42-17.41 31.07-1.77 31.07-1.77l.64-.01v-3.7h-155.4z" class="st12"/>
      <path d="M850.23 1439.87c0-17.96 9.46-26.66 9.46-26.66h-151.6c-11.47 0-20.77 9.12-20.77 20.36v12.81c0 11.25 9.3 20.36 20.77 20.36h151.6c0 .01-9.46-4.26-9.46-26.87z" class="st9"/>
      <path d="M687.32 1433.58v12.81c0 1.68.21 3.32.61 4.88 5.11-12.26 14.91-24.08 33.57-27.88 43.55-8.87 138.2-10.18 138.2-10.18H708.1c-11.48 0-20.78 9.12-20.78 20.37z" class="st10"/>
      <path d="M569.2 1362.52h-9.97c1.63-.98 3.67-1.56 5.89-1.56h249.72c13.07 0 23.66 8.24 23.66 18.4v11.68c0 10.16-10.59 18.4-23.66 18.4l-246.93-.07 1.29-46.85z" class="st3"/>
      <path d="M710.97 1361c12.49 0 22.62 7.88 22.62 17.59v13.2c0 9.72-10.13 17.59-22.62 17.59H555.51v-2.95h.64l39.52-2.91 7.99-24.37s-15.42-13.47-16.42-13.81c-1.01-.35-31.09-1.4-31.09-1.4l-.64-.01V1361h155.46z" class="st5"/>
      <path d="M565.6 1385.11c0-14.25-9.47-21.15-9.47-21.15h151.66c11.48 0 20.78 7.23 20.78 16.16v10.16c0 8.92-9.3 16.16-20.78 16.16H556.13s9.47-3.39 9.47-21.33z" class="st9"/>
      <path d="M728.57 1380.12v10.16c0 1.34-.21 2.63-.61 3.88-5.11-9.73-14.92-19.1-33.58-22.12-43.57-7.04-138.26-8.08-138.26-8.08h151.66c11.49 0 20.79 7.23 20.79 16.16z" class="st10"/>
      <path d="M1411.36 1381.53h23.83v546.04h-23.83z" class="st13" transform="rotate(10.735 1423.534 1654.674)"/>
      <path d="M2160.89 1927.5h28.16l-104.94-543.46-23.41 4.44zM1645.32 1927.5h28.16l-104.94-543.46-23.42 4.44zM1904.31 1927.5l-22.87.27 100.62-541.29 23.41 4.43z" class="st13"/>
      <path d="M1802.16 652.13c92.71 9.93 212.69 20.4 333.13 224.8 131.64 223.39 62.34 557.09-41.56 649.82-103.9 92.73-443.24 207.23-728.5 35.82 0 0-172.24-103.88-83.85-276.27 136.03-265.3 116.81-320.62 177.63-424.59s146.36-230.66 343.15-209.58z" class="st9"/>
      <path fill="#f7cc7f" d="M2135.29 876.92c-82.21-139.51-164.2-188.67-237.45-208.98 28.33 29.32 57.06 67.04 85.81 115.83 131.64 223.39 62.34 557.09-41.56 649.82-92.14 82.23-369.44 181.55-629.98 83.44 26.79 29.64 53.12 45.52 53.12 45.52 285.26 171.41 624.6 56.91 728.5-35.82 103.91-92.72 173.2-426.41 41.56-649.81z"/>
      <path d="M954.02 955.58l264.92-1.99c6.05-.05 10.92-4.99 10.87-11.04l-1.33-177.12c-.05-6.05-4.99-10.92-11.04-10.87l-264.92 1.99c-6.05.05-10.92 4.99-10.87 11.04l1.33 177.12c.05 6.05 4.99 10.91 11.04 10.87z" class="st3"/>
      <path d="M1220.36 853.09l85.53 87.16-105.52-19.69z" class="st3"/>
      <path d="M1143.18 840.8l-25.74-.46s-32.44-24.22-33.43-32.78c-.99-8.56 4.32-26.68-.71-28.95-5.03-2.27-15.69-4.07-22.42 7.26-4.89 8.23-.82 38.27-3.84 40.27-1.89 1.26-16.69 1.41-27.51 1.35a19.095 19.095 0 00-16.98 10.15l-.01.02a10.168 10.168 0 002.46 12.57l5.74 4.8-4.52 6c-3.36 4.47-2.49 10.82 1.96 14.21l4.53 3.46-3.1 3.54c-4 4.55-3.15 11.57 1.81 15.04l4.03 2.82-.61 1.11a10.172 10.172 0 003.33 13.34l4.05 2.68 68.56 1.22c6.42.11 12.8-1.09 18.74-3.53l24.18-3.56c2.6-.38 4.53-2.61 4.53-5.24l.15-60.01c.02-2.89-2.3-5.26-5.2-5.31z" class="st15"/>
      <path d="M1504.51 991.67l-23.83 71.49 72.63-28.57z" class="st16"/>
      <path d="M1579.38 778.94c-4.84.2-18.11 4.62-37.51 41.16-24.77 46.66-60.98 187.62-60.98 187.62l108.08 40.11 13.89-29.42 22.87-226.5c-.01 0-45.01-13.03-46.35-12.97z" class="st17"/>
      <path d="M1722.25 758.62c-30.91.04-107.38 9.03-142.87 20.33 0 0-26.07 223.34 23.47 393.06 11.09 37.99-9.17 157.48-9.17 157.48l320.26-4.21s-37.94-288.88-23.65-335.54c14.29-46.66 14.63-209.28 14.63-209.28s-2.19-.34-71.95-12.36c-32.54-5.61-77.72-9.52-110.72-9.48z" class="st18"/>
      <path d="M1759.57 1744.02s-7.08 81.5-20.11 104.06c-13.03 22.57.69 60.93 1.37 66.2.69 5.27 27.42 12.79 69.93 8.28 42.51-4.51 41.82-14.29 38.39-30.09-3.43-15.8-26.05-36.11-27.42-51.15-1.37-15.05 13.03-69.21 13.03-69.21l-75.19-28.09z" class="st19"/>
      <path d="M1629.81 1262.22s-221.07-12.23-270.44 17.56c-49.37 29.8 8.93 90.98 8.93 90.98s179.98 77.99 481.29 95.32c71.35 4.1 77.5-185.41 64.16-201.09-13.34-15.68-283.94-2.77-283.94-2.77z" class="st20"/>
      <path d="M1816.06 1928.89c43.77-4.65 38.36-26.08 34.83-42.35-2.21-10.19-14.77-22.19-22.25-33.55-3.91 3.11-10.28 8.59-29.29 14.19-19.74 5.81-46.8-5.69-64.04-12.89-6.15 22.79-6.43 51.86-5.85 56.27.71 5.42 42.83 22.98 86.6 18.33z" class="st7"/>
      <path d="M1791.9 1419.84c-8.83 66.61-52.56 398.2-52.56 398.2l101.47 12.54s124.78-432.81 118.38-499.01c-6.4-66.2-53.11-71.77-53.11-71.77s-90.8-16.28-114.18 160.04z" class="st12"/>
      <path d="M1694.69 476.85s33.71-35.55 60.83 7.7c0 0 20.89-11.73 35.55 9.16 0 0 37.74-11.36 46.91 45.07 0 0 19.42-3.66 21.99 19.42 2.57 23.09-9.16 38.48-9.16 38.48s10.91 8.18 5.95 29.41c-4.21 18.05-19.15 20.8-19.15 20.8s-4.03 30.42-17.22 39.58c-13.19 9.16-31.15 4.76-31.15 4.76s-4.76 16.49-20.15 15.02c-15.39-1.47-34.45-16.12-51.67-9.53-17.22 6.6-61.93-.37-61.93-.37s-50.2-22.35-35.18-73.66c0 0-26.38-23.82-3.3-52.4 0 0-16.86-44.71 16.49-71.09 33.34-26.39 61.19-22.35 61.19-22.35z" class="st18"/>
      <path d="M1700.39 718.17l-6.1 45.28s-13.67 65.23 3.92 77.8c17.59 12.58 74.8-79.66 74.8-79.66l-6.04-114.73-66.58 71.31z" class="st19"/>
      <path d="M1768.91 684.04c-14.53 39.13-49.13 63.19-73.69 72.52l5.17-38.39 66.57-71.31 1.95 37.18z" class="st3"/>
      <path d="M1726.31 526.33c-35.69-12.29-73.74 11.42-79.19 48.22-2.37 15.99-4.51 36.1-4.91 58.09-.96 52.88 26.42 104.35 50.43 104.35 24.01 0 90.38-34.23 92.78-109.31 1.49-46.35-21.65-88.46-59.11-101.35z" class="st19"/>
      <path d="M1767.73 633.61c0 11.67 7.73 21.12 17.27 21.12s17.27-9.46 17.27-21.12c0-11.67-7.73-21.12-17.27-21.12-9.53 0-17.27 9.46-17.27 21.12z" class="st19"/>
      <path d="M1622.28 500.02c-24.8 19.65-33.5 49.51-19.42 66.69 14.08 17.18 45.6 15.18 70.41-4.47 24.8-19.65 33.5-49.51 19.42-66.69-14.08-17.19-45.61-15.18-70.41 4.47z" class="st18"/>
      <path d="M1908.41 805.28c-29.94-11.19-44.59 257.69-48.63 368.36-53.03 5.08-145.45.04-168.46-1.68-10.82-.81-35.78-9.92-46.54-11.32-11.03-1.44-21.03-2.19-26.45-1.25-1.99.35-57.26 22.87-61.99 27.81-5.86 6.13-21.72 21.58-19.04 28.26 2.67 6.68 30.49-18.62 30.49-18.62l13.59-7.6c-16.92 16.47-49.2 38.17-44.55 46.07 4.53 7.7 33.65-14.31 54.4-29.32-17.8 16.02-39.91 44.69-34.81 49.16 4.58 4.02 29.73-29.17 56.61-38.73 9.96-3.54 19.89 6.27 27.72 7.45 5.76.87 14.65 2.72 20.3 1.13l29.1-8.23c9.91.89 10.16 6.74 20.17 8.86 11.62 2.47 30.69 5.06 45.49 8.67 85.23 20.75 113.66 30.39 139.75 30.38 79.03-.06 83.62-432.95 12.85-459.4z" class="st19"/>
      <path d="M1965.24 1057.71c5.61-113.36 4.79-253.09-58.98-276.93-25.16-9.41-69.51 47.15-61.54 279.23 34.04 2.8 84.02 5.06 120.52-2.3z" class="st18"/>
      <path d="M1608.49 1009h6.5l97.72 239.31-6.73-1.02z" class="st16"/>
      <path d="M1462.85 1813.73s8.85 28.29-7 47-81.73 37.07-90.38 47.2c-8.65 10.13-7.99 18.76-7.99 18.76l184.9-5.07-2.01-55.65-8.51-39.99-69.01-12.25z" class="st19"/>
      <path d="M1444.34 1870.06s47.51 19.15 70.46 7.81c22.95-11.34 22.26-14.48 28.9-10.25 6.64 4.23 9.02 56.4 9.02 56.4l-207.91 6.09c-14.47-.33-21.78-10.95-10.03-20.04 8.06-6.23 17.37-10.41 22.67-13.43 16.26-9.3 86.89-26.58 86.89-26.58z" class="st7"/>
      <path d="M1469.85 1314.44c-14.29-29.97-46.79-68.99-103.98-45.49-54.54 22.42-69.18 77.51-51.97 133.92s130.5 388.04 134.45 433.64l90.46.6s-16.44-262.59-20.47-326.06c-3.89-61.07-23.75-144.73-48.49-196.61z" class="st12"/>
      <path d="M1323.01 1009h302.37c8 0 15.21 4.83 18.24 12.24l93.1 227.07h166.7c4.66 0 8.44 3.78 8.44 8.43 0 4.66-3.78 8.43-8.44 8.43h-474.44c-13.04 0-24.87-7.66-30.21-19.56l-93.75-208.83c-5.86-13.03 3.69-27.78 17.99-27.78z" class="st3"/>
      <path d="M1485.8 1141.23c2.04 10.2 10.94 17.02 19.87 15.23 8.93-1.79 14.52-11.5 12.48-21.7-2.04-10.2-10.94-17.02-19.87-15.23-8.93 1.78-14.52 11.5-12.48 21.7z" class="st15"/>
      <ellipse cx="2335.9" cy="538.18" fill="#fff" opacity=".3" rx="149.3" ry="149.61"/>
      <g>
        <path d="M2175.33 535.24h55.04v4.24h-55.04zM2441.77 535.24h55.04v4.24h-55.04zM2333.55 378.41h4.23v55.16h-4.23zM2333.55 644.33h4.23v55.16h-4.23zM2340.45 538.18c0 2.52-2.04 4.57-4.56 4.57a4.56 4.56 0 01-4.56-4.57c0-2.52 2.04-4.57 4.56-4.57 2.52.01 4.56 2.05 4.56 4.57z" class="st13"/>
        <path d="M2335.9 540.22c-.52 0-1.04-.2-1.44-.6l-81.87-82.04c-.8-.8-.8-2.09 0-2.89.79-.8 2.09-.8 2.88 0l81.87 82.04c.8.8.8 2.09 0 2.89-.4.41-.92.6-1.44.6z" class="st13"/>
        <path d="M2362.22 621.09c-.34-.17-.61-.47-.74-.86l-26.46-80.1c-.26-.78.16-1.62.94-1.88.78-.26 1.61.16 1.87.94l26.46 80.1a1.485 1.485 0 01-2.07 1.8z" class="st13"/>
      </g>
      <g>
        <path d="M2349.58 1560.16c-1.92-16.94-4.2-34.27-12.06-49.39-9.56-18.38-26.36-31.65-41.03-46.26-27.42-27.3-48.52-60.93-61.19-97.53-9.79-28.3-14.68-58.45-28.17-85.17-8.24-16.32-19.48-30.91-28.84-46.61-22.12-37.11-34.17-80.96-64.17-112.02-5.77 37.66 5.64 77.62 30.41 106.51 7.39 8.62 15.96 16.39 21.59 26.25 10.22 17.9 9.29 39.75 10.49 60.34 2.25 38.7 13.16 76.87 31.68 110.89 19.68 36.15 48.1 68.33 58.62 108.14 7.89 29.83 5.54 63.29 22.36 89.14 1.82 2.8 3.91 5.62 4.35 8.93.25 1.86-.04 3.75-.33 5.6-.38 2.4-.75 4.8-1.13 7.2-3.83 24.41-7.78 55.48 13.2 73.75 14.54 12.66 33.25 12.95 43.69-3.87 10.51-16.94 9.58-41.72 8.8-60.78-1.29-31.74-4.69-63.57-8.27-95.12z" class="st12"/>
        <path d="M2387.37 1540.52c-8.16-28.26-20.83-55.17-27.18-83.9-6.16-27.86-6.21-56.66-6.23-85.2-.02-31.27-.04-62.54-.07-93.81-.01-19.47-.04-39.04-3.25-58.24-6.92-41.31-28.39-79.5-32.03-121.23-1.57-18.04.25-36.28-1.73-54.28-1.13-10.29-3.77-20.78-8.53-29.91-5.12-9.81-19.27-9.38-23.9.67-10.43 22.59-17.04 47.02-12.83 71.22 2.53 14.52 8.82 28.06 13.51 42.03 20.91 62.2 9.81 131.06 25.99 194.67 4.88 19.2 12.27 38.03 13.13 57.82 2.06 47.38-33.33 90.65-30.08 137.96 2.66 38.79 30.55 70.89 42.25 107.96 6.55 20.75 7.96 42.9 14.98 63.5 5.45 16 18.14 35.44 37.84 30.58 18.7-4.61 13.05-19.88 12.22-34.46-2.83-49.33-.17-97.19-14.09-145.38z" class="st20"/>
        <path d="M2430.18 1566.42c-.82-14.68-3.3-29.45-1.25-44.01 1.73-12.3 6.63-23.89 10.13-35.81 6.55-22.33 8.18-45.77 9.76-68.99 2.88-42.21 5.77-84.42 8.65-126.63 4.48-65.61 8.99-131.41 21.26-196.02 3.41-17.94 7.23-37.38-.83-53.75-1.7-3.45-5.04-7.11-8.71-5.96-2.61.82-3.89 3.69-4.84 6.27-26.82 72.88-36.95 151.34-66.89 222.99-7.17 17.16-15.51 34.05-19.22 52.28-4.46 21.89-2.01 44.51-1.43 66.84.83 32.03-2.29 64.31-11.14 95.11-4.63 16.11-10.82 31.86-13.36 48.43-3.16 20.66-.51 41.71 1.47 62.52 3.81 40.01 5.09 80.26 3.86 120.43-.73 23.62 19.21 23 32.42 8.49 9.24-10.15 9.15-21.29 12.31-33.92 10.38-41.47 30.33-73.31 27.81-118.27z" class="st12"/>
        <path d="M2305.63 1630.46c-17.63-28.33-52.75-44.43-64.02-75.84-2.87-7.99-3.99-16.59-7.49-24.33-7.78-17.18-25.47-26.89-42.86-34.8-2.41-1.1-5.16.65-5.2 3.31-.06 4.22 1.94 8.25 5.44 10.61 13.4 9.02 23.58 22.8 28.11 38.34 5.37 18.41 3.04 38.59 9.72 56.57 5.6 15.09 17.14 27.43 22.56 42.59 4.95 13.86 4.43 29 6.76 43.53 2.33 14.53 8.78 29.96 22.13 36.11 48.3 22.25 36.23-77.79 24.85-96.09z" class="st20"/>
        <path d="M2506.47 1621.11c-.75 13.69 1.34 28.05-4.02 40.67-3.43 8.07-9.6 14.6-14.66 21.76-17.78 25.14-24.22 60.77-51.53 74.92-1.8.93-3.81 1.77-5.81 1.4-2.8-.52-4.63-3.22-5.76-5.84-6.7-15.6.82-33.18 5.27-49.56.78-2.87 1.43-6.06.06-8.7-1.5-2.9-4.93-4.16-7.27-6.43-4.67-4.54-4.23-12.05-3.3-18.5 2.32-16.12 5.57-32.1 9.74-47.83 2.37-8.92 5.1-17.92 10.24-25.59 5.66-8.43 13.88-14.73 21.58-21.35 34.01-29.26 60.06-67.72 74.65-110.19 3.16-9.19 5.97-18.9 12.49-26.1 6.52-7.2 18.14-10.91 26.09-5.32 5.65 3.98-17.49 41.2-20.19 45.67-7.71 12.76-7.81 23.86-12.17 38.02-10.69 34.71-33.37 65.78-35.41 102.97z" class="st12"/>
        <path d="M2479.55 1636.94c5.05-13.06 10.15-26.3 11.81-40.21 1.85-15.46-.6-31.28 2.04-46.63 3.4-19.73 14.9-37.09 20.6-56.28 4.11-13.86 5.12-28.42 7.59-42.67 7.06-40.74 26.22-80.55 20.72-121.53-1.2-8.91-5.22-19.3-14.07-20.82-8.01-1.38-15.3 5.95-17.38 13.82-2.08 7.87-.53 16.17.04 24.29 1.59 22.65-4.87 45.79-17.96 64.32-12.58 17.8-30.84 31.21-42.16 49.84-13.89 22.86-15.78 50.75-22.86 76.55-14.09 51.31-49.44 96.06-55.88 148.88-2.56 21.02 2.37 46.57 21.77 54.96 56.09 24.3 73.03-71.65 85.74-104.52z" class="st20"/>
        <path d="M2381.47 1702.06h-128.75c-8.8 0-15.3 8.24-13.26 16.82l46.93 197.92c1.46 6.16 6.95 10.5 13.26 10.5h154.65c6.31 0 11.8-4.35 13.26-10.5l46.93-197.92c2.03-8.58-4.46-16.82-13.26-16.82h-119.76z" class="st3"/>
      </g>
      <g>
        <path d="M463.84 1470.42h625.85v32.32H463.84zM475.16 1657.93h409.18v28.28H475.16z" class="st13"/>
        <path d="M1001.88 1486.58h26.4v440.86h-26.4zM628.52 1486.58h26.4v440.86h-26.4zM814.1 1927.44l142.22-437.07-23.31-7.58-144.68 444.65zM414.06 1927.44l121.64-438.03-23.62-6.56-123.46 444.59z" class="st13"/>
      </g>
      <path d="M2335.9 363.45c-96.3 0-174.37 78.23-174.37 174.73s78.07 174.73 174.37 174.73c96.3 0 174.37-78.23 174.37-174.73s-78.07-174.73-174.37-174.73zm9.35 324.05c-82.29 5.17-153.19-57.48-158.36-139.95-5.16-82.47 57.36-153.51 139.66-158.69 82.29-5.18 153.2 57.48 158.36 139.95 5.16 82.47-57.37 153.52-139.66 158.69z" class="st13"/>
      <path d="M223.1 1924.74h2874.63v19.5H223.1z" class="st17"/>
      <path d="M1670.89 678.29l46.49-.76s-.78 17.67-21.22 18.6c-24.91 1.12-25.27-17.84-25.27-17.84z" class="st15"/>
    </g>
  </switch>
</svg>
